HIERARCHY
ROOT Hips
{
	OFFSET -0.001795 -0.223333 0.028219
	CHANNELS 6 Xposition Yposition Zposition Zrotation Yrotation Xrotation 
	JOINT LeftUpLeg
	{
		OFFSET 0.069520 -0.091406 -0.006815
		CHANNELS 3 Zrotation Yrotation Xrotation
		JOINT LeftLeg
		{
			OFFSET 0.034277 -0.375199 -0.004496
			CHANNELS 3 Zrotation Yrotation Xrotation
			JOINT LeftFoot
			{
				OFFSET -0.013596 -0.397961 -0.043693
				CHANNELS 3 Zrotation Yrotation Xrotation
				JOINT LeftToe
				{
					OFFSET 0.026358 -0.055791 0.119288
					CHANNELS 3 Zrotation Yrotation Xrotation
					End Site
					{
						OFFSET 0.000000 0.000000 0.000000
					}
				}
			}
		}
	}
	JOINT RightUpLeg
	{
		OFFSET -0.067670 -0.090522 -0.004320
		CHANNELS 3 Zrotation Yrotation Xrotation
		JOINT RightLeg
		{
			OFFSET -0.038290 -0.382569 -0.008850
			CHANNELS 3 Zrotation Yrotation Xrotation
			JOINT RightFoot
			{
				OFFSET 0.015774 -0.398415 -0.042312
				CHANNELS 3 Zrotation Yrotation Xrotation
				JOINT RightToe
				{
					OFFSET -0.025372 -0.048144 0.123348
					CHANNELS 3 Zrotation Yrotation Xrotation
					End Site
					{
						OFFSET 0.000000 0.000000 0.000000
					}
				}
			}
		}
	}
	JOINT Spine
	{
		OFFSET -0.002533 0.108963 -0.026696
		CHANNELS 3 Zrotation Yrotation Xrotation
		JOINT Spine1
		{
			OFFSET 0.005487 0.135180 0.001092
			CHANNELS 3 Zrotation Yrotation Xrotation
			JOINT Spine2
			{
				OFFSET 0.001457 0.052922 0.025425
				CHANNELS 3 Zrotation Yrotation Xrotation
				JOINT Neck
				{
					OFFSET -0.002778 0.213870 -0.042857
					CHANNELS 3 Zrotation Yrotation Xrotation
					JOINT Head
					{
						OFFSET 0.005152 0.064970 0.051349
						CHANNELS 3 Zrotation Yrotation Xrotation
						End Site
						{
							OFFSET 0.000000 0.000000 0.000000
						}
					}
				}
				JOINT LeftShoulder
				{
					OFFSET 0.078845 0.121749 -0.034090
					CHANNELS 3 Zrotation Yrotation Xrotation
					JOINT LeftArm
					{
						OFFSET 0.090977 0.030469 -0.008868
						CHANNELS 3 Zrotation Yrotation Xrotation
						JOINT LeftForeArm
						{
							OFFSET 0.259612 -0.012772 -0.027456
							CHANNELS 3 Zrotation Yrotation Xrotation
							JOINT LeftHand
							{
								OFFSET 0.249234 0.008986 -0.001171
								CHANNELS 3 Zrotation Yrotation Xrotation
								End Site
								{
									OFFSET 0.000000 0.000000 0.000000
								}
							}
						}
					}
				}
				JOINT RightShoulder
				{
					OFFSET -0.081759 0.118833 -0.038615
					CHANNELS 3 Zrotation Yrotation Xrotation
					JOINT RightArm
					{
						OFFSET -0.096012 0.032551 -0.009143
						CHANNELS 3 Zrotation Yrotation Xrotation
						JOINT RightForeArm
						{
							OFFSET -0.253742 -0.013329 -0.021401
							CHANNELS 3 Zrotation Yrotation Xrotation
							JOINT RightHand
							{
								OFFSET -0.255298 0.007772 -0.005559
								CHANNELS 3 Zrotation Yrotation Xrotation
								End Site
								{
									OFFSET 0.000000 0.000000 0.000000
								}
							}
						}
					}
				}
			}
		}
	}
}
MOTION
Frames: 5
Frame Time: 0.050000
0.000000 0.918560 0.000000 -1.999297 -9.788635 1.335575 14.362100 1.012621 -15.742575 -6.007234 1.515997 16.845857 9.922537 19.150013 19.364870 0.000000 0.000000 0.000000 -8.261129 0.696423 -8.978009 5.198846 -0.257509 14.444560 -23.133516 -41.263223 17.636844 0.000000 0.000000 0.000000 -5.021828 0.476821 19.729486 4.970163 -0.963165 -22.028611 1.150679 5.890899 23.908927 -5.722609 5.133779 -19.769648 0.000000 0.000000 0.000000 -16.277199 -9.758966 4.175782 -39.905456 -50.906082 10.513788 130.520047 -66.286649 -100.941534 0.000000 0.000000 0.000000 9.295121 15.852201 6.474264 41.323512 32.644020 4.904175 -136.856537 54.220505 -94.098569 0.000000 0.000000 0.000000 
-0.000674 0.918789 -0.000591 -2.380934 -10.485341 1.667047 15.182634 1.169256 -15.292443 -6.608912 1.668568 15.883940 10.256539 19.517212 19.519425 0.000000 0.000000 0.000000 -8.177873 0.712087 -8.800698 5.684832 -0.344847 13.737700 -22.028433 -40.294919 16.104322 0.000000 0.000000 0.000000 -5.154854 0.569312 20.553777 5.595069 -1.048792 -22.906975 1.688142 6.757207 23.445387 -7.937836 6.656765 -19.406497 0.000000 0.000000 0.000000 -17.500400 -9.490276 3.963779 -38.979482 -51.345599 10.321904 130.417823 -65.064823 -99.760883 0.000000 0.000000 0.000000 8.383647 16.256862 6.596202 41.483955 34.212612 5.587698 -140.205653 53.648146 -97.662693 0.000000 0.000000 0.000000 
-0.001254 0.918479 -0.001256 -2.350333 -10.589581 1.251934 15.565828 1.242717 -15.101491 -7.201185 1.873323 16.304172 10.195451 19.430611 19.604265 0.000000 0.000000 0.000000 -8.419032 0.719583 -9.249685 6.220561 -0.418521 15.238997 -22.053162 -40.399638 15.904031 0.000000 0.000000 0.000000 -5.021344 0.566897 21.182458 5.037769 -0.987728 -22.190437 1.862987 8.315858 22.986071 -5.945811 5.605052 -18.040193 0.000000 0.000000 0.000000 -16.996335 -10.792129 4.229416 -36.024587 -52.317635 9.522852 132.206096 -62.152930 -99.777207 0.000000 0.000000 0.000000 9.178837 17.741470 7.528053 37.560938 36.821686 5.701034 -136.778205 49.377109 -86.633378 0.000000 0.000000 0.000000 
-0.001989 0.919005 -0.001732 -2.228384 -10.487631 1.261723 15.303978 1.228442 -15.642496 -6.878125 1.826392 17.070308 10.073299 19.256919 20.010083 0.000000 0.000000 0.000000 -8.513014 0.733816 -9.711055 6.405178 -0.442945 16.187087 -22.028056 -40.460552 15.684533 0.000000 0.000000 0.000000 -5.726731 0.717112 21.199644 5.504945 -1.143276 -21.611401 2.196975 8.778690 23.114300 -6.880794 6.329268 -17.107143 0.000000 0.000000 0.000000 -16.630436 -10.750281 4.072889 -35.333002 -52.926748 9.423271 129.914219 -61.022491 -95.986066 0.000000 0.000000 0.000000 7.915722 17.740072 7.403121 36.828374 38.662076 6.166239 -135.981482 47.391746 -82.380364 0.000000 0.000000 0.000000 
-0.002845 0.918802 -0.001895 -2.222488 -9.983915 0.927580 15.184509 1.179482 -15.655943 -6.587824 1.734969 17.455429 9.781897 18.931166 19.851090 0.000000 0.000000 0.000000 -8.675611 0.720162 -9.929255 7.212127 -0.633957 16.939864 -23.230611 -41.701234 16.769221 0.000000 0.000000 0.000000 -5.625870 0.690753 21.676737 4.983129 -1.022888 -21.428540 2.216089 9.447747 23.303581 -6.307011 6.077917 -17.288672 0.000000 0.000000 0.000000 -15.232172 -10.839960 3.883259 -35.251653 -52.788537 9.274749 129.644825 -60.637649 -95.752938 0.000000 0.000000 0.000000 7.927400 18.262758 7.740146 35.409570 40.211514 6.328358 -134.406447 45.807196 -77.531833 0.000000 0.000000 0.000000 
